<svg 
 xmlns="http://www.w3.org/2000/svg"
 xmlns:xlink="http://www.w3.org/1999/xlink"
 width="145px" height="112px">
<path fill-rule="evenodd"  fill="rgb(0, 98, 223)"
 d="M117.869,86.062 L117.869,80.503 C130.171,78.260 139.527,67.445 139.527,54.480 C139.527,39.895 127.687,28.029 113.133,28.029 C110.391,28.029 107.687,28.449 105.096,29.279 L102.601,30.077 L101.696,27.615 C96.825,14.373 84.087,5.476 69.999,5.476 C53.446,5.476 39.441,17.331 36.700,33.663 L36.218,36.536 L33.386,35.881 C31.710,35.492 29.979,35.295 28.241,35.295 C15.687,35.295 5.473,45.531 5.473,58.114 C5.473,70.695 15.687,80.931 28.241,80.931 L56.683,80.931 L56.683,86.416 L28.241,86.416 C12.669,86.416 -0.000,73.719 -0.000,58.114 C-0.000,42.507 12.669,29.811 28.241,29.811 C29.453,29.811 30.662,29.889 31.858,30.042 C33.794,22.046 38.228,14.794 44.531,9.400 C51.620,3.333 60.665,-0.008 69.999,-0.008 C78.185,-0.008 86.029,2.493 92.685,7.225 C98.499,11.361 103.026,16.909 105.884,23.377 C108.252,22.824 110.680,22.544 113.133,22.544 C130.704,22.544 144.999,36.871 144.999,54.480 C144.999,70.476 133.203,83.762 117.869,86.062 ZM65.026,65.846 L65.973,65.846 C66.090,53.479 75.601,43.457 87.276,43.457 C98.952,43.457 108.462,53.479 108.579,65.846 L109.527,65.846 C111.867,65.846 113.765,67.914 113.765,70.463 L113.765,100.471 C113.765,106.845 109.021,112.012 103.169,112.012 L71.383,112.012 C65.531,112.012 60.788,106.845 60.788,100.471 L60.788,70.463 C60.788,67.914 62.685,65.846 65.026,65.846 ZM83.015,87.570 L83.015,99.432 C83.015,100.707 84.047,101.740 85.319,101.740 L89.235,101.740 C90.507,101.740 91.537,100.707 91.537,99.432 L91.537,87.570 C93.150,86.302 94.186,84.332 94.186,82.120 C94.186,78.296 91.092,75.195 87.276,75.195 C83.460,75.195 80.367,78.296 80.367,82.120 C80.367,84.332 81.404,86.302 83.015,87.570 ZM101.667,65.846 C101.553,57.298 95.143,50.381 87.276,50.381 C79.409,50.381 72.999,57.298 72.886,65.846 L101.667,65.846 Z"/>
</svg>